<!DOCTYPE svg PUBLIC "-//W3C//DTD SVG 1.1//EN" "http://www.w3.org/Graphics/SVG/1.1/DTD/svg11.dtd">
<!-- Uploaded to: SVG Repo, www.svgrepo.com, Transformed by: SVG Repo Mixer Tools -->
<svg version="1.1" id="Layer_1" xmlns="http://www.w3.org/2000/svg" xmlns:xlink="http://www.w3.org/1999/xlink" viewBox="0 0 511.448 511.448" xml:space="preserve" width="64px" height="64px" fill="#000000">
<g id="SVGRepo_bgCarrier" stroke-width="0"/>
<g id="SVGRepo_tracerCarrier" stroke-linecap="round" stroke-linejoin="round" stroke="#CCCCCC" stroke-width="25.5724"/>
<g id="SVGRepo_iconCarrier"> <g> <rect x="476.099" y="16.57" style="fill:#ff464a;" width="18.779" height="18.779"/> <rect x="476.099" y="476.099" style="fill:#ff464a;" width="18.779" height="18.779"/> <rect x="16.57" y="476.099" style="fill:#ff464a;" width="18.779" height="18.779"/> <rect x="16.57" y="16.57" style="fill:#ff464a;" width="18.779" height="18.779"/> <polygon style="fill:#ff464a;" points="255.724,118.417 367.071,388.833 340.803,388.833 242.59,150.308 "/> </g> <g> <path style="fill:#000;" d="M511.448,467.814v35.348c0,4.573-3.712,8.285-8.285,8.285h-35.348c-4.573,0-8.285-3.712-8.285-8.285 v-9.389h-27.064c-4.573,0-8.285-3.712-8.285-8.285s3.712-8.285,8.285-8.285h27.064v-9.389c0-4.573,3.712-8.285,8.285-8.285h9.389 v-27.064c0-4.573,3.712-8.285,8.285-8.285s8.285,3.712,8.285,8.285v27.064h9.389C507.736,459.53,511.448,463.241,511.448,467.814z M494.878,494.878v-18.779h-18.779v18.779H494.878z"/> <path style="fill:#000;" d="M511.448,8.285v35.348c0,4.573-3.712,8.285-8.285,8.285h-9.389v27.064 c0,4.573-3.712,8.285-8.285,8.285s-8.285-3.712-8.285-8.285V51.918h-9.389c-4.573,0-8.285-3.712-8.285-8.285v-9.389h-27.064 c-4.573,0-8.285-3.712-8.285-8.285s3.712-8.285,8.285-8.285h27.064V8.285c0-4.573,3.712-8.285,8.285-8.285h35.348 C507.736,0,511.448,3.712,511.448,8.285z M494.878,35.348V16.57h-18.779v18.779H494.878z"/> <path style="fill:#000;" d="M493.773,379.443v17.674c0,4.573-3.712,8.285-8.285,8.285s-8.285-3.712-8.285-8.285v-17.674 c0-4.573,3.712-8.285,8.285-8.285S493.773,374.87,493.773,379.443z"/> <path style="fill:#000;" d="M493.773,326.421v17.674c0,4.573-3.712,8.285-8.285,8.285s-8.285-3.712-8.285-8.285v-17.674 c0-4.573,3.712-8.285,8.285-8.285S493.773,321.847,493.773,326.421z"/> <path style="fill:#000;" d="M493.773,273.398v17.674c0,4.573-3.712,8.285-8.285,8.285s-8.285-3.712-8.285-8.285v-17.674 c0-4.573,3.712-8.285,8.285-8.285S493.773,268.825,493.773,273.398z"/> <path style="fill:#000;" d="M493.773,220.375v17.674c0,4.573-3.712,8.285-8.285,8.285s-8.285-3.712-8.285-8.285v-17.674 c0-4.573,3.712-8.285,8.285-8.285S493.773,215.802,493.773,220.375z"/> <path style="fill:#000;" d="M493.773,167.353v17.674c0,4.573-3.712,8.285-8.285,8.285s-8.285-3.712-8.285-8.285v-17.674 c0-4.573,3.712-8.285,8.285-8.285S493.773,162.78,493.773,167.353z"/> <path style="fill:#000;" d="M493.773,114.33v17.674c0,4.573-3.712,8.285-8.285,8.285s-8.285-3.712-8.285-8.285V114.33 c0-4.573,3.712-8.285,8.285-8.285S493.773,109.757,493.773,114.33z"/> <path style="fill:#000;" d="M397.118,17.674c4.573,0,8.285,3.712,8.285,8.285s-3.712,8.285-8.285,8.285h-17.674 c-4.573,0-8.285-3.712-8.285-8.285s3.712-8.285,8.285-8.285H397.118z"/> <path style="fill:#000;" d="M397.118,388.833c4.573,0,8.285,3.712,8.285,8.285c0,4.573-3.712,8.285-8.285,8.285h-79.534 c-4.573,0-8.285-3.712-8.285-8.285c0-4.573,3.712-8.285,8.285-8.285h5.302l-29.56-71.801H173.936l-29.56,71.801h5.302 c4.573,0,8.285,3.712,8.285,8.285c0,4.573-3.712,8.285-8.285,8.285H114.33c-4.573,0-8.285-3.712-8.285-8.285 c0-4.573,3.712-8.285,8.285-8.285h12.129L248.058,93.497c1.281-3.104,4.308-5.126,7.666-5.126s6.385,2.021,7.666,5.126 l121.599,295.336H397.118z M367.071,388.833L255.724,118.417l-13.134,31.891l98.213,238.525H367.071z M286.499,300.462 L233.631,172.07l-52.868,128.392H286.499z"/> <path style="fill:#000;" d="M397.118,477.204c4.573,0,8.285,3.712,8.285,8.285s-3.712,8.285-8.285,8.285h-17.674 c-4.573,0-8.285-3.712-8.285-8.285s3.712-8.285,8.285-8.285H397.118z"/> <path style="fill:#000;" d="M344.095,17.674c4.573,0,8.285,3.712,8.285,8.285s-3.712,8.285-8.285,8.285h-17.674 c-4.573,0-8.285-3.712-8.285-8.285s3.712-8.285,8.285-8.285H344.095z"/> <path style="fill:#000;" d="M344.095,477.204c4.573,0,8.285,3.712,8.285,8.285s-3.712,8.285-8.285,8.285h-17.674 c-4.573,0-8.285-3.712-8.285-8.285s3.712-8.285,8.285-8.285H344.095z"/> <path style="fill:#000;" d="M291.072,17.674c4.573,0,8.285,3.712,8.285,8.285s-3.712,8.285-8.285,8.285h-17.674 c-4.573,0-8.285-3.712-8.285-8.285s3.712-8.285,8.285-8.285H291.072z"/> <path style="fill:#000;" d="M291.072,477.204c4.573,0,8.285,3.712,8.285,8.285s-3.712,8.285-8.285,8.285h-17.674 c-4.573,0-8.285-3.712-8.285-8.285s3.712-8.285,8.285-8.285H291.072z"/> <path style="fill:#000;" d="M238.05,17.674c4.573,0,8.285,3.712,8.285,8.285s-3.712,8.285-8.285,8.285h-17.674 c-4.573,0-8.285-3.712-8.285-8.285s3.712-8.285,8.285-8.285H238.05z"/> <path style="fill:#000;" d="M238.05,477.204c4.573,0,8.285,3.712,8.285,8.285s-3.712,8.285-8.285,8.285h-17.674 c-4.573,0-8.285-3.712-8.285-8.285s3.712-8.285,8.285-8.285H238.05z"/> <path style="fill:#000;" d="M185.027,17.674c4.573,0,8.285,3.712,8.285,8.285s-3.712,8.285-8.285,8.285h-17.674 c-4.573,0-8.285-3.712-8.285-8.285s3.712-8.285,8.285-8.285H185.027z"/> <path style="fill:#000;" d="M185.027,477.204c4.573,0,8.285,3.712,8.285,8.285s-3.712,8.285-8.285,8.285h-17.674 c-4.573,0-8.285-3.712-8.285-8.285s3.712-8.285,8.285-8.285H185.027z"/> <path style="fill:#000;" d="M132.004,17.674c4.573,0,8.285,3.712,8.285,8.285s-3.712,8.285-8.285,8.285H114.33 c-4.573,0-8.285-3.712-8.285-8.285s3.712-8.285,8.285-8.285H132.004z"/> <path style="fill:#000;" d="M132.004,477.204c4.573,0,8.285,3.712,8.285,8.285s-3.712,8.285-8.285,8.285H114.33 c-4.573,0-8.285-3.712-8.285-8.285s3.712-8.285,8.285-8.285H132.004z"/> <path style="fill:#000;" d="M78.982,17.674c4.573,0,8.285,3.712,8.285,8.285s-3.712,8.285-8.285,8.285H51.918v9.389 c0,4.573-3.712,8.285-8.285,8.285h-9.389v27.064c0,4.573-3.712,8.285-8.285,8.285s-8.285-3.712-8.285-8.285V51.918H8.285 C3.712,51.918,0,48.206,0,43.633V8.285C0,3.712,3.712,0,8.285,0h35.348c4.573,0,8.285,3.712,8.285,8.285v9.389H78.982z M35.348,35.348V16.57H16.57v18.779H35.348z"/> <path style="fill:#000;" d="M78.982,477.204c4.573,0,8.285,3.712,8.285,8.285s-3.712,8.285-8.285,8.285H51.918v9.389 c0,4.573-3.712,8.285-8.285,8.285H8.285c-4.573,0-8.285-3.712-8.285-8.285v-35.348c0-4.573,3.712-8.285,8.285-8.285h9.389v-27.064 c0-4.573,3.712-8.285,8.285-8.285s8.285,3.712,8.285,8.285v27.064h9.389c4.573,0,8.285,3.712,8.285,8.285v9.389H78.982z M35.348,494.878v-18.779H16.57v18.779H35.348z"/> <path style="fill:#000;" d="M34.244,379.443v17.674c0,4.573-3.712,8.285-8.285,8.285s-8.285-3.712-8.285-8.285v-17.674 c0-4.573,3.712-8.285,8.285-8.285S34.244,374.87,34.244,379.443z"/> <path style="fill:#000;" d="M34.244,326.421v17.674c0,4.573-3.712,8.285-8.285,8.285s-8.285-3.712-8.285-8.285v-17.674 c0-4.573,3.712-8.285,8.285-8.285S34.244,321.847,34.244,326.421z"/> <path style="fill:#000;" d="M34.244,273.398v17.674c0,4.573-3.712,8.285-8.285,8.285s-8.285-3.712-8.285-8.285v-17.674 c0-4.573,3.712-8.285,8.285-8.285S34.244,268.825,34.244,273.398z"/> <path style="fill:#000;" d="M34.244,220.375v17.674c0,4.573-3.712,8.285-8.285,8.285s-8.285-3.712-8.285-8.285v-17.674 c0-4.573,3.712-8.285,8.285-8.285S34.244,215.802,34.244,220.375z"/> <path style="fill:#000;" d="M34.244,167.353v17.674c0,4.573-3.712,8.285-8.285,8.285s-8.285-3.712-8.285-8.285v-17.674 c0-4.573,3.712-8.285,8.285-8.285S34.244,162.78,34.244,167.353z"/> <path style="fill:#000;" d="M34.244,114.33v17.674c0,4.573-3.712,8.285-8.285,8.285s-8.285-3.712-8.285-8.285V114.33 c0-4.573,3.712-8.285,8.285-8.285S34.244,109.757,34.244,114.33z"/> </g> </g>
</svg>